<mxfile host="app.diagrams.net" agent="Mozilla/5.0 (Windows NT 10.0; Win64; x64) AppleWebKit/537.36 (KHTML, like Gecko) Chrome/137.0.0.0 Safari/537.36" version="27.1.6">
  <diagram name="Page-1" id="i2YnRkH3YR12RfZyXD9H">
    <mxGraphModel dx="749" dy="441" grid="1" gridSize="10" guides="1" tooltips="1" connect="1" arrows="1" fold="1" page="1" pageScale="1" pageWidth="1169" pageHeight="827" math="1" shadow="0">
      <root>
        <mxCell id="0" />
        <mxCell id="1" parent="0" />
        <mxCell id="2khk1u88p8jtqD9ahfLH-1" value="&lt;b&gt;&lt;font style=&quot;font-size: 14px; color: rgb(255, 51, 51);&quot;&gt;S&lt;sub style=&quot;&quot;&gt;0&lt;/sub&gt;&lt;/font&gt;&lt;/b&gt;" style="ellipse;whiteSpace=wrap;html=1;aspect=fixed;strokeWidth=4;dashed=1;dashPattern=1 1;fillColor=none;strokeColor=#FF3333;" vertex="1" parent="1">
          <mxGeometry x="475" y="315" width="40" height="40" as="geometry" />
        </mxCell>
        <mxCell id="2khk1u88p8jtqD9ahfLH-2" value="&lt;b&gt;S&lt;sub&gt;3&lt;/sub&gt;&lt;/b&gt;" style="ellipse;whiteSpace=wrap;html=1;aspect=fixed;strokeWidth=4;fontSize=14;" vertex="1" parent="1">
          <mxGeometry x="350" y="380" width="40" height="40" as="geometry" />
        </mxCell>
        <mxCell id="2khk1u88p8jtqD9ahfLH-5" value="$$\hat{Z}(\mathbf{s}_0) = \sum_{i=1}^{n} \lambda_i Z(\mathbf{s}_i), \quad\sum_{i=1}^{n} \lambda_i = 1$$" style="text;html=1;align=center;verticalAlign=middle;whiteSpace=wrap;rounded=0;fontSize=16;" vertex="1" parent="1">
          <mxGeometry x="350" y="450" width="290" height="70" as="geometry" />
        </mxCell>
        <mxCell id="2khk1u88p8jtqD9ahfLH-11" value="" style="endArrow=none;startArrow=none;html=1;rounded=0;exitX=1;exitY=0.5;exitDx=0;exitDy=0;startFill=0;dashed=1;entryX=0.083;entryY=0.324;entryDx=0;entryDy=0;entryPerimeter=0;" edge="1" parent="1" source="2khk1u88p8jtqD9ahfLH-1" target="2khk1u88p8jtqD9ahfLH-16">
          <mxGeometry width="50" height="50" relative="1" as="geometry">
            <mxPoint x="570" y="380" as="sourcePoint" />
            <mxPoint x="630" y="390" as="targetPoint" />
          </mxGeometry>
        </mxCell>
        <mxCell id="2khk1u88p8jtqD9ahfLH-12" value="" style="endArrow=none;startArrow=none;html=1;rounded=0;entryX=0.5;entryY=1;entryDx=0;entryDy=0;exitX=0.5;exitY=0;exitDx=0;exitDy=0;startFill=0;dashed=1;" edge="1" parent="1" source="2khk1u88p8jtqD9ahfLH-1" target="2khk1u88p8jtqD9ahfLH-15">
          <mxGeometry width="50" height="50" relative="1" as="geometry">
            <mxPoint x="570" y="380" as="sourcePoint" />
            <mxPoint x="414.14213562373084" y="264.14213562373084" as="targetPoint" />
          </mxGeometry>
        </mxCell>
        <mxCell id="2khk1u88p8jtqD9ahfLH-13" value="" style="endArrow=none;startArrow=none;html=1;rounded=0;exitX=1.055;exitY=0.224;exitDx=0;exitDy=0;entryX=-0.006;entryY=0.724;entryDx=0;entryDy=0;startFill=0;dashed=1;exitPerimeter=0;entryPerimeter=0;" edge="1" parent="1" source="2khk1u88p8jtqD9ahfLH-2" target="2khk1u88p8jtqD9ahfLH-1">
          <mxGeometry width="50" height="50" relative="1" as="geometry">
            <mxPoint x="570" y="380" as="sourcePoint" />
            <mxPoint x="620" y="330" as="targetPoint" />
          </mxGeometry>
        </mxCell>
        <mxCell id="2khk1u88p8jtqD9ahfLH-15" value="&lt;b&gt;S&lt;span style=&quot;font-size: 11.6667px;&quot;&gt;&lt;sub&gt;1&lt;/sub&gt;&lt;/span&gt;&lt;/b&gt;" style="ellipse;whiteSpace=wrap;html=1;aspect=fixed;strokeWidth=4;fontSize=14;" vertex="1" parent="1">
          <mxGeometry x="460" y="200" width="40" height="40" as="geometry" />
        </mxCell>
        <mxCell id="2khk1u88p8jtqD9ahfLH-16" value="&lt;b&gt;S&lt;sub&gt;2&lt;/sub&gt;&lt;/b&gt;" style="ellipse;whiteSpace=wrap;html=1;aspect=fixed;strokeWidth=4;fontSize=14;" vertex="1" parent="1">
          <mxGeometry x="610" y="380" width="40" height="40" as="geometry" />
        </mxCell>
        <mxCell id="2khk1u88p8jtqD9ahfLH-18" value="" style="endArrow=classic;startArrow=classic;html=1;rounded=0;exitX=0.693;exitY=0.032;exitDx=0;exitDy=0;entryX=0;entryY=1;entryDx=0;entryDy=0;exitPerimeter=0;" edge="1" parent="1" source="2khk1u88p8jtqD9ahfLH-2" target="2khk1u88p8jtqD9ahfLH-15">
          <mxGeometry width="50" height="50" relative="1" as="geometry">
            <mxPoint x="550" y="420" as="sourcePoint" />
            <mxPoint x="600" y="370" as="targetPoint" />
          </mxGeometry>
        </mxCell>
        <mxCell id="2khk1u88p8jtqD9ahfLH-19" value="" style="endArrow=classic;startArrow=classic;html=1;rounded=0;exitX=1;exitY=0.5;exitDx=0;exitDy=0;entryX=0.068;entryY=0.729;entryDx=0;entryDy=0;entryPerimeter=0;" edge="1" parent="1" source="2khk1u88p8jtqD9ahfLH-2" target="2khk1u88p8jtqD9ahfLH-16">
          <mxGeometry width="50" height="50" relative="1" as="geometry">
            <mxPoint x="550" y="420" as="sourcePoint" />
            <mxPoint x="600" y="370" as="targetPoint" />
          </mxGeometry>
        </mxCell>
        <mxCell id="2khk1u88p8jtqD9ahfLH-20" value="" style="endArrow=classic;startArrow=classic;html=1;rounded=0;entryX=1;entryY=1;entryDx=0;entryDy=0;exitX=0.5;exitY=0;exitDx=0;exitDy=0;" edge="1" parent="1" source="2khk1u88p8jtqD9ahfLH-16" target="2khk1u88p8jtqD9ahfLH-15">
          <mxGeometry width="50" height="50" relative="1" as="geometry">
            <mxPoint x="640" y="370" as="sourcePoint" />
            <mxPoint x="600" y="370" as="targetPoint" />
          </mxGeometry>
        </mxCell>
        <mxCell id="2khk1u88p8jtqD9ahfLH-21" value="h&lt;sub&gt;13&lt;/sub&gt;" style="text;html=1;align=center;verticalAlign=middle;whiteSpace=wrap;rounded=0;" vertex="1" parent="1">
          <mxGeometry x="390" y="270" width="60" height="30" as="geometry" />
        </mxCell>
        <mxCell id="2khk1u88p8jtqD9ahfLH-22" value="h&lt;sub&gt;12&lt;/sub&gt;" style="text;html=1;align=center;verticalAlign=middle;whiteSpace=wrap;rounded=0;" vertex="1" parent="1">
          <mxGeometry x="530" y="270" width="60" height="30" as="geometry" />
        </mxCell>
        <mxCell id="2khk1u88p8jtqD9ahfLH-23" value="h&lt;sub&gt;23&lt;/sub&gt;" style="text;html=1;align=center;verticalAlign=middle;whiteSpace=wrap;rounded=0;" vertex="1" parent="1">
          <mxGeometry x="470" y="399" width="60" height="30" as="geometry" />
        </mxCell>
        <mxCell id="2khk1u88p8jtqD9ahfLH-26" value="Position with unknown value" style="text;html=1;align=left;verticalAlign=middle;whiteSpace=wrap;rounded=0;" vertex="1" parent="1">
          <mxGeometry x="650" y="225" width="160" height="30" as="geometry" />
        </mxCell>
        <mxCell id="2khk1u88p8jtqD9ahfLH-27" value="" style="ellipse;whiteSpace=wrap;html=1;aspect=fixed;strokeWidth=4;fontSize=14;" vertex="1" parent="1">
          <mxGeometry x="622.5" y="200" width="20" height="20" as="geometry" />
        </mxCell>
        <mxCell id="2khk1u88p8jtqD9ahfLH-29" value="" style="ellipse;whiteSpace=wrap;html=1;aspect=fixed;strokeWidth=4;dashed=1;dashPattern=1 1;fillColor=none;strokeColor=#FF3333;" vertex="1" parent="1">
          <mxGeometry x="622.5" y="230" width="20" height="20" as="geometry" />
        </mxCell>
        <mxCell id="2khk1u88p8jtqD9ahfLH-30" value="Position with known value" style="text;html=1;align=left;verticalAlign=middle;whiteSpace=wrap;rounded=0;" vertex="1" parent="1">
          <mxGeometry x="650" y="195" width="160" height="30" as="geometry" />
        </mxCell>
        <mxCell id="2khk1u88p8jtqD9ahfLH-32" value="\(\lambda_1\)" style="text;html=1;align=center;verticalAlign=middle;whiteSpace=wrap;rounded=0;" vertex="1" parent="1">
          <mxGeometry x="470" y="260" width="60" height="30" as="geometry" />
        </mxCell>
        <mxCell id="2khk1u88p8jtqD9ahfLH-33" value="\(\lambda_2\)" style="text;html=1;align=center;verticalAlign=middle;whiteSpace=wrap;rounded=0;" vertex="1" parent="1">
          <mxGeometry x="540" y="340" width="60" height="30" as="geometry" />
        </mxCell>
        <mxCell id="2khk1u88p8jtqD9ahfLH-34" value="\(\lambda_3\)" style="text;html=1;align=center;verticalAlign=middle;whiteSpace=wrap;rounded=0;" vertex="1" parent="1">
          <mxGeometry x="405" y="340" width="60" height="30" as="geometry" />
        </mxCell>
        <mxCell id="2khk1u88p8jtqD9ahfLH-38" value="" style="endArrow=classic;startArrow=classic;html=1;rounded=0;" edge="1" parent="1">
          <mxGeometry width="50" height="50" relative="1" as="geometry">
            <mxPoint x="646.25" y="269.62" as="sourcePoint" />
            <mxPoint x="618.75" y="269.62" as="targetPoint" />
          </mxGeometry>
        </mxCell>
        <mxCell id="2khk1u88p8jtqD9ahfLH-39" value="Distance between two points" style="text;html=1;align=left;verticalAlign=middle;whiteSpace=wrap;rounded=0;" vertex="1" parent="1">
          <mxGeometry x="650" y="255" width="160" height="30" as="geometry" />
        </mxCell>
        <mxCell id="2khk1u88p8jtqD9ahfLH-40" value="\(\lambda_i\)" style="text;html=1;align=center;verticalAlign=middle;whiteSpace=wrap;rounded=0;" vertex="1" parent="1">
          <mxGeometry x="622.5" y="290" width="20" height="20" as="geometry" />
        </mxCell>
        <mxCell id="2khk1u88p8jtqD9ahfLH-41" value="Observation weight" style="text;html=1;align=left;verticalAlign=middle;whiteSpace=wrap;rounded=0;" vertex="1" parent="1">
          <mxGeometry x="650" y="285" width="160" height="30" as="geometry" />
        </mxCell>
      </root>
    </mxGraphModel>
  </diagram>
</mxfile>
